<svg width="30" height="30" viewBox="0 0 30 30" fill="none" xmlns="http://www.w3.org/2000/svg">
<g clip-path="url(#clip0_70_14253)">
<path d="M10 28.75V23.75" stroke="#6F7882" stroke-width="1.5" stroke-linecap="round" stroke-linejoin="round"/>
<path d="M20 28.75V23.75" stroke="#6F7882" stroke-width="1.5" stroke-linecap="round" stroke-linejoin="round"/>
<path d="M26.25 28.75L3.75 28.75" stroke="#6F7882" stroke-width="1.5" stroke-linecap="round" stroke-linejoin="round"/>
<path d="M15 5.9375C17.5888 5.9375 19.6875 8.03625 19.6875 10.625C19.6875 13.2138 17.5888 15.3125 15 15.3125C12.4112 15.3125 10.3125 13.2138 10.3125 10.625C10.3125 8.03625 12.4112 5.9375 15 5.9375Z" stroke="#6F7882" stroke-width="1.5" stroke-linecap="round" stroke-linejoin="round"/>
<path d="M14.9688 18.75C14.71 18.75 14.5 18.96 14.5 19.2188C14.5 19.4775 14.71 19.6875 14.9688 19.6875C15.2275 19.6875 15.4375 19.4775 15.4375 19.2188C15.4375 18.96 15.2275 18.75 14.9688 18.75Z" fill="#6F7882" stroke="#6F7882" stroke-width="1.5" stroke-linecap="round" stroke-linejoin="round"/>
<rect x="3.5625" y="0.75" width="22.875" height="22.875" rx="3.25" stroke="#6F7882" stroke-width="1.5"/>
</g>
<defs>
<clipPath id="clip0_70_14253">
<rect width="30" height="30" fill="white"/>
</clipPath>
</defs>
</svg>
