<svg width="30" height="31" viewBox="0 0 30 31" fill="none" xmlns="http://www.w3.org/2000/svg">
<path d="M4.87127 6.03301C4.87127 6.03301 3.30029 6.31376 3.30029 7.63376V17.2382C3.30029 22.3745 10.8766 28.0903 13.4519 29.7881C13.9651 30.1296 14.6291 30.1296 15.1423 29.7881C17.7176 28.0903 25.2939 22.3745 25.2939 17.2382V7.63376C25.2939 6.31376 23.723 6.03301 23.723 6.03301L15.2088 3.36362C14.615 3.17746 13.9792 3.17746 13.3855 3.36362L4.87127 6.03301Z" fill="#F0F0F0"/>
<path d="M6.77498 4.89245C6.80116 4.88761 6.82703 4.88119 6.85244 4.87322L15.3666 2.20382C15.8322 2.05787 16.3307 2.05787 16.7962 2.20382L25.3104 4.87322C25.3358 4.88119 25.3617 4.88761 25.3878 4.89245C25.3889 4.89264 25.3899 4.89283 25.391 4.89303L25.3905 4.89294L25.3897 4.89279L25.3884 4.89257L25.3917 4.89323C25.3971 4.89434 25.4074 4.89655 25.422 4.90003C25.4513 4.90702 25.4967 4.91889 25.5528 4.93678C25.6674 4.97329 25.8137 5.03092 25.9542 5.11502C26.2343 5.2828 26.4153 5.49961 26.4153 5.83576V15.4403C26.4153 16.5622 25.9995 17.7636 25.2829 18.9901C24.5687 20.2127 23.5798 21.4187 22.4943 22.5371C20.3225 24.7748 17.8263 26.5984 16.5637 27.4308L16.5614 27.4324C16.2697 27.6264 15.8931 27.6264 15.6015 27.4324L15.5991 27.4308C14.3365 26.5984 11.8403 24.7748 9.66851 22.5371C8.58304 21.4187 7.59409 20.2127 6.87988 18.9901C6.16334 17.7636 5.74756 16.5622 5.74756 15.4403V5.83576C5.74756 5.49961 5.92848 5.2828 6.20865 5.11502C6.34908 5.03092 6.49538 4.97329 6.60996 4.93678C6.66605 4.91889 6.71153 4.90702 6.74082 4.90003C6.75539 4.89655 6.76572 4.89434 6.77109 4.89323L6.77498 4.89245ZM6.77224 4.89294L6.77218 4.89295C6.77222 4.89294 6.77225 4.89294 6.77229 4.89294L6.77224 4.89294Z" stroke="#6F7882" stroke-linecap="round" stroke-linejoin="round"/>
</svg>
