<svg width="32" height="32" viewBox="0 0 32 32" fill="none" xmlns="http://www.w3.org/2000/svg">
<path d="M22.4417 8.10826C22.4417 8.90825 21.9084 9.44157 21.1084 9.44157H10.4417C9.64173 9.44157 9.1084 8.90825 9.1084 8.10826V2.10834C9.1084 1.30835 9.64173 0.775024 10.4417 0.775024H21.1084C21.9084 0.775024 22.4417 1.30835 22.4417 2.10834V8.10826Z" stroke="#6F7882" stroke-width="1.55" stroke-miterlimit="10" stroke-linecap="round" stroke-linejoin="round"/>
<path d="M13.5078 4.77502V5.44168" stroke="#6F7882" stroke-width="1.55" stroke-miterlimit="10" stroke-linecap="round" stroke-linejoin="round"/>
<path d="M18.1748 4.77502V5.44168" stroke="#6F7882" stroke-width="1.55" stroke-miterlimit="10" stroke-linecap="round" stroke-linejoin="round"/>
<path d="M21.9916 15.5084C18.6132 18.8417 12.9375 18.8417 9.55908 15.5084" stroke="#6F7882" stroke-width="1.55" stroke-miterlimit="10" stroke-linecap="round" stroke-linejoin="round"/>
<path d="M26.316 19.7751C20.5052 25.5084 11.0457 25.5084 5.23486 19.7751" stroke="#6F7882" stroke-width="1.55" stroke-miterlimit="10" stroke-linecap="round" stroke-linejoin="round"/>
<path d="M30.7749 24.8413C22.3965 32.8412 9.15328 32.7079 0.774902 24.708" stroke="#6F7882" stroke-width="1.55" stroke-miterlimit="10" stroke-linecap="round" stroke-linejoin="round"/>
</svg>
