<svg width="30" height="30" viewBox="0 0 30 30" fill="none" xmlns="http://www.w3.org/2000/svg">
<path d="M18.478 8.47826L14.9997 5L11.5215 8.47826" stroke="#6F7882" stroke-width="1.5" stroke-linecap="round" stroke-linejoin="round"/>
<path d="M10.072 12.174C10.072 12.5776 9.91171 12.9646 9.62633 13.25C9.34095 13.5354 8.95389 13.6957 8.5503 13.6957H7.53639C7.1328 13.6957 6.74574 13.5354 6.46036 13.25C6.17497 12.9646 6.01465 12.5776 6.01465 12.174C6.01465 11.7704 6.17497 11.3833 6.46036 11.0979C6.74574 10.8125 7.1328 10.6522 7.53639 10.6522H8.5503C8.95389 10.6522 9.34095 10.8125 9.62633 11.0979C9.91171 11.3833 10.072 11.7704 10.072 12.174Z" stroke="#6F7882" stroke-width="1.5" stroke-linecap="round" stroke-linejoin="round"/>
<path d="M17.0286 12.174C17.0286 12.5776 16.8683 12.9646 16.5829 13.25C16.2975 13.5354 15.9104 13.6957 15.5068 13.6957H14.4929C14.0893 13.6957 13.7023 13.5354 13.4169 13.25C13.1315 12.9646 12.9712 12.5776 12.9712 12.174C12.9712 11.7704 13.1315 11.3833 13.4169 11.0979C13.7023 10.8125 14.0893 10.6522 14.4929 10.6522H15.5068C15.9104 10.6522 16.2975 10.8125 16.5829 11.0979C16.8683 11.3833 17.0286 11.7704 17.0286 12.174Z" stroke="#6F7882" stroke-width="1.5" stroke-linecap="round" stroke-linejoin="round"/>
<path d="M23.9851 12.174C23.9851 12.5776 23.8248 12.9646 23.5394 13.25C23.254 13.5354 22.867 13.6957 22.4634 13.6957H21.4495C21.0459 13.6957 20.6588 13.5354 20.3734 13.25C20.0881 12.9646 19.9277 12.5776 19.9277 12.174C19.9277 11.7704 20.0881 11.3833 20.3734 11.0979C20.6588 10.8125 21.0459 10.6522 21.4495 10.6522H22.4634C22.867 10.6522 23.254 10.8125 23.5394 11.0979C23.8248 11.3833 23.9851 11.7704 23.9851 12.174Z" stroke="#6F7882" stroke-width="1.5" stroke-linecap="round" stroke-linejoin="round"/>
<path d="M10.072 17.8261C10.072 18.2297 9.91171 18.6167 9.62633 18.9021C9.34095 19.1875 8.95389 19.3478 8.5503 19.3478H7.53639C7.1328 19.3478 6.74574 19.1875 6.46036 18.9021C6.17497 18.6167 6.01465 18.2297 6.01465 17.8261C6.01465 17.4225 6.17497 17.0354 6.46036 16.75C6.74574 16.4646 7.1328 16.3043 7.53639 16.3043H8.5503C8.95389 16.3043 9.34095 16.4646 9.62633 16.75C9.91171 17.0354 10.072 17.4225 10.072 17.8261Z" stroke="#6F7882" stroke-width="1.5" stroke-linecap="round" stroke-linejoin="round"/>
<path d="M17.0286 17.8261C17.0286 18.2297 16.8683 18.6167 16.5829 18.9021C16.2975 19.1875 15.9104 19.3478 15.5068 19.3478H14.4929C14.0893 19.3478 13.7023 19.1875 13.4169 18.9021C13.1315 18.6167 12.9712 18.2297 12.9712 17.8261C12.9712 17.4225 13.1315 17.0354 13.4169 16.75C13.7023 16.4646 14.0893 16.3043 14.4929 16.3043H15.5068C15.9104 16.3043 16.2975 16.4646 16.5829 16.75C16.8683 17.0354 17.0286 17.4225 17.0286 17.8261Z" stroke="#6F7882" stroke-width="1.5" stroke-linecap="round" stroke-linejoin="round"/>
<path d="M23.9851 17.8261C23.9851 18.2297 23.8248 18.6167 23.5394 18.9021C23.254 19.1875 22.867 19.3478 22.4634 19.3478H21.4495C21.0459 19.3478 20.6588 19.1875 20.3734 18.9021C20.0881 18.6167 19.9277 18.2297 19.9277 17.8261C19.9277 17.4225 20.0881 17.0354 20.3734 16.75C20.6588 16.4646 21.0459 16.3043 21.4495 16.3043H22.4634C22.867 16.3043 23.254 16.4646 23.5394 16.75C23.8248 17.0354 23.9851 17.4225 23.9851 17.8261Z" stroke="#6F7882" stroke-width="1.5" stroke-linecap="round" stroke-linejoin="round"/>
<path d="M10.072 23.4783C10.072 23.8819 9.91171 24.2689 9.62633 24.5543C9.34095 24.8397 8.95389 25 8.5503 25H7.53639C7.1328 25 6.74574 24.8397 6.46036 24.5543C6.17497 24.2689 6.01465 23.8819 6.01465 23.4783C6.01465 23.0747 6.17497 22.6876 6.46036 22.4023C6.74574 22.1169 7.1328 21.9565 7.53639 21.9565H8.5503C8.95389 21.9565 9.34095 22.1169 9.62633 22.4023C9.91171 22.6876 10.072 23.0747 10.072 23.4783Z" stroke="#6F7882" stroke-width="1.5" stroke-linecap="round" stroke-linejoin="round"/>
<path d="M17.0286 23.4783C17.0286 23.8819 16.8683 24.2689 16.5829 24.5543C16.2975 24.8397 15.9104 25 15.5068 25H14.4929C14.0893 25 13.7023 24.8397 13.4169 24.5543C13.1315 24.2689 12.9712 23.8819 12.9712 23.4783C12.9712 23.0747 13.1315 22.6876 13.4169 22.4023C13.7023 22.1169 14.0893 21.9565 14.4929 21.9565H15.5068C15.9104 21.9565 16.2975 22.1169 16.5829 22.4023C16.8683 22.6876 17.0286 23.0747 17.0286 23.4783Z" stroke="#6F7882" stroke-width="1.5" stroke-linecap="round" stroke-linejoin="round"/>
<path d="M23.9851 23.4783C23.9851 23.8819 23.8248 24.2689 23.5394 24.5543C23.254 24.8397 22.867 25 22.4634 25H21.4495C21.0459 25 20.6588 24.8397 20.3734 24.5543C20.0881 24.2689 19.9277 23.8819 19.9277 23.4783C19.9277 23.0747 20.0881 22.6876 20.3734 22.4023C20.6588 22.1169 21.0459 21.9565 21.4495 21.9565H22.4634C22.867 21.9565 23.254 22.1169 23.5394 22.4023C23.8248 22.6876 23.9851 23.0747 23.9851 23.4783Z" stroke="#6F7882" stroke-width="1.5" stroke-linecap="round" stroke-linejoin="round"/>
</svg>
